<?xml version="1.0" encoding="utf-8"?>
<svg viewBox="107.5 35.4 40 40" xmlns="http://www.w3.org/2000/svg">
    <rect x="107.5" y="35.4" width="40" height="40" style="fill: rgb(255, 255, 254); fill-rule: nonzero; paint-order: stroke;" transform="matrix(1, 0, 0, 1, 0, -3.552713678800501e-15)"/>
    <rect x="110" y="37.9" width="35" height="35" style="stroke: rgb(0, 0, 0); fill: rgb(14, 4, 4);" transform="matrix(1, 0, 0, 1, 0, -3.552713678800501e-15)"/>
    <ellipse style="stroke: rgb(0, 0, 0); fill: rgb(255, 252, 252);" cx="127.57" cy="67.219" rx="6.744" ry="6.744" transform="matrix(1, 0, 0, 1, 0, -3.552713678800501e-15)"/>
    <ellipse style="stroke: rgb(0, 0, 0); fill: rgb(255, 252, 252);" cx="127.5" cy="43.259" rx="6.744" ry="6.744" transform="matrix(1, 0, 0, 1, 0, -3.552713678800501e-15)"/>
    <ellipse style="stroke: rgb(0, 0, 0); fill: rgb(255, 252, 252); transform-origin: -132.358px -57.028px;" cx="-132.358" cy="-57.028" rx="6.744" ry="6.744" transform="matrix(0, -1, 1, 0, 271.838012695313, 112.3929977417)"/>
    <ellipse style="stroke: rgb(0, 0, 0); fill: rgb(255, 252, 252); transform-origin: -132.428px -80.988px;" cx="-132.428" cy="-80.988" rx="6.744" ry="6.744" transform="matrix(0, -1, 1, 0, 247.947982788086, 136.422981262207)"/>
</svg>